<svg
    viewBox="0 0 85.334641 123.87286"
    version="1.1"
    id="svg5"
    xml:space="preserve"
    xmlns="http://www.w3.org/2000/svg"
    xmlns:svg="http://www.w3.org/2000/svg"
>
            <defs id="defs2" />
            <g id="layer1" transform="translate(-69.012132,-23.085962)">
                <path
                    id="XMLID_1385_"
                    d="m 148.84132,67.129661 h -4.12909 v -9.496942 c 0,-20.370188 -13.76364,-34.546758 -33.03277,-34.546758 -19.269123,0 -33.032773,14.17657 -33.032773,34.546758 v 9.496942 h -4.129095 c -3.028002,0 -5.505459,2.47746 -5.505459,5.50545 v 68.818279 c 0,3.02798 2.477457,5.50544 5.505459,5.50544 h 74.323728 c 3.02799,0 5.50545,-2.47746 5.50545,-5.50544 V 72.635111 c 0,-3.02799 -2.47746,-5.50545 -5.50545,-5.50545 z M 89.657607,57.632719 c 0,-14.038925 9.08401,-23.535819 22.021853,-23.535819 12.93782,0 22.02183,9.496894 22.02183,23.535819 v 9.496942 H 89.657607 Z M 143.33588,135.94789 H 80.023047 V 78.140551 h 63.312833 z"
                    style="stroke-width:1.37636"
                    fill="white"
                />
                <g id="g409" transform="matrix(2.7070967,0,0,2.7070967,79.370593,74.565077)">
                    <path
                        fill="white"
                        d="M 4.857,3 A 1.857,1.857 0 0 0 3,4.857 V 9.143 C 3,10.169 3.831,11 4.857,11 H 9.143 A 1.857,1.857 0 0 0 11,9.143 V 4.857 A 1.857,1.857 0 0 0 9.143,3 Z m 10,0 A 1.857,1.857 0 0 0 13,4.857 V 9.143 C 13,10.169 13.831,11 14.857,11 h 4.286 A 1.857,1.857 0 0 0 21,9.143 V 4.857 A 1.857,1.857 0 0 0 19.143,3 Z m -10,10 A 1.857,1.857 0 0 0 3,14.857 v 4.286 C 3,20.169 3.831,21 4.857,21 H 9.143 A 1.857,1.857 0 0 0 11,19.143 V 14.857 A 1.857,1.857 0 0 0 9.143,13 Z m 10,0 A 1.857,1.857 0 0 0 13,14.857 v 4.286 C 13,20.169 13.831,21 14.857,21 h 4.286 A 1.857,1.857 0 0 0 21,19.143 V 14.857 A 1.857,1.857 0 0 0 19.143,13 Z"
                        clip-rule="evenodd"
                        id="path400"
                    />
                </g>
            </g>
        </svg>