<svg
    viewBox="0 0 85.289818 123.80788"
    version="1.1"
    id="svg5"
    xml:space="preserve"
    xmlns:inkscape="http://www.inkscape.org/namespaces/inkscape"
    xmlns:sodipodi="http://sodipodi.sourceforge.net/DTD/sodipodi-0.dtd"
    xmlns="http://www.w3.org/2000/svg"
    xmlns:svg="http://www.w3.org/2000/svg"
>
            <defs id="defs2" />
            <g id="layer1" transform="translate(-69.094949,-23.301832)">
                <g
                    style="fill:currentColor"
                    id="g409"
                    transform="matrix(2.7070967,0,0,2.7070967,79.370593,74.565077)"
                >
                    <path
                        fill="white"
                        d="M 4.857,3 A 1.857,1.857 0 0 0 3,4.857 V 9.143 C 3,10.169 3.831,11 4.857,11 H 9.143 A 1.857,1.857 0 0 0 11,9.143 V 4.857 A 1.857,1.857 0 0 0 9.143,3 Z m 10,0 A 1.857,1.857 0 0 0 13,4.857 V 9.143 C 13,10.169 13.831,11 14.857,11 h 4.286 A 1.857,1.857 0 0 0 21,9.143 V 4.857 A 1.857,1.857 0 0 0 19.143,3 Z m -10,10 A 1.857,1.857 0 0 0 3,14.857 v 4.286 C 3,20.169 3.831,21 4.857,21 H 9.143 A 1.857,1.857 0 0 0 11,19.143 V 14.857 A 1.857,1.857 0 0 0 9.143,13 Z m 10,0 A 1.857,1.857 0 0 0 13,14.857 v 4.286 C 13,20.169 13.831,21 14.857,21 h 4.286 A 1.857,1.857 0 0 0 21,19.143 V 14.857 A 1.857,1.857 0 0 0 19.143,13 Z"
                        clip-rule="evenodd"
                        id="path400"
                    />
                </g>
                <path
                    id="XMLID_1396_"
                    d="M 148.88222,67.322421 H 89.729589 v -9.49196 c 0,-14.03156 8.94167,-23.52347 21.735131,-23.52347 9.35439,0 16.78286,4.81474 19.94683,13.34369 1.10053,2.88888 4.2645,4.26451 7.15338,3.16403 2.88882,-1.10054 4.26445,-4.26451 3.16397,-7.15338 -4.67722,-12.65588 -16.23262,-20.3595 -30.26418,-20.3595 -19.121401,0 -32.740291,14.16913 -32.740291,34.52863 v 9.49196 h -4.12693 c -3.02639,0 -5.50255,2.47616 -5.50255,5.50256 v 68.782169 c 0,3.0264 2.47616,5.50255 5.50255,5.50255 h 74.284721 c 3.0264,0 5.50256,-2.47615 5.50256,-5.50255 V 72.824981 c 0,-3.0264 -2.47616,-5.50256 -5.50256,-5.50256 z m -5.50255,68.782119 H 80.100059 V 78.327531 h 63.279611 z"
                    style="stroke-width:1.37564"
                    fill="white"
                />
            </g>
        </svg>