<?xml version="1.0" encoding="UTF-8" standalone="no"?>
<!-- Created with Inkscape (http://www.inkscape.org/) -->

<svg
   width="175.93568mm"
   height="175.9357mm"
   viewBox="0 0 175.93568 175.9357"
   version="1.1"
   id="svg5"
   xml:space="preserve"
   inkscape:version="1.2.2 (732a01da63, 2022-12-09)"
   sodipodi:docname="high contrast escape.svg"
   inkscape:export-filename="one.svg"
   inkscape:export-xdpi="96"
   inkscape:export-ydpi="96"
   xmlns:inkscape="http://www.inkscape.org/namespaces/inkscape"
   xmlns:sodipodi="http://sodipodi.sourceforge.net/DTD/sodipodi-0.dtd"
   xmlns:xlink="http://www.w3.org/1999/xlink"
   xmlns="http://www.w3.org/2000/svg"
   xmlns:svg="http://www.w3.org/2000/svg"><sodipodi:namedview
     id="namedview7"
     pagecolor="#505050"
     bordercolor="#eeeeee"
     borderopacity="1"
     inkscape:showpageshadow="0"
     inkscape:pageopacity="0"
     inkscape:pagecheckerboard="0"
     inkscape:deskcolor="#505050"
     inkscape:document-units="mm"
     showgrid="false"
     inkscape:zoom="1"
     inkscape:cx="427"
     inkscape:cy="544.5"
     inkscape:window-width="1920"
     inkscape:window-height="1010"
     inkscape:window-x="1920"
     inkscape:window-y="2"
     inkscape:window-maximized="1"
     inkscape:current-layer="layer1"
     inkscape:lockguides="false" /><defs
     id="defs2"><linearGradient
       inkscape:collect="always"
       id="linearGradient41889"><stop
         style="stop-color:#181721;stop-opacity:1"
         offset="0"
         id="stop41883" /><stop
         style="stop-color:#685983;stop-opacity:1;"
         offset="0.46575344"
         id="stop41885" /><stop
         style="stop-color:#c8c4d7;stop-opacity:1"
         offset="1"
         id="stop41887" /></linearGradient><linearGradient
       inkscape:collect="always"
       id="linearGradient22879"><stop
         style="stop-color:#000000;stop-opacity:1;"
         offset="0"
         id="stop22875" /><stop
         style="stop-color:#181721;stop-opacity:1"
         offset="1"
         id="stop22877" /></linearGradient><linearGradient
       inkscape:collect="always"
       id="linearGradient22679"><stop
         style="stop-color:#000000;stop-opacity:1;"
         offset="0"
         id="stop22675" /><stop
         style="stop-color:#181721;stop-opacity:1"
         offset="1"
         id="stop22677" /></linearGradient><linearGradient
       inkscape:collect="always"
       id="linearGradient22408"><stop
         style="stop-color:#000000;stop-opacity:1;"
         offset="0"
         id="stop22404" /><stop
         style="stop-color:#181721;stop-opacity:1"
         offset="1"
         id="stop22406" /></linearGradient><linearGradient
       inkscape:collect="always"
       id="linearGradient20964"><stop
         style="stop-color:#181721;stop-opacity:1"
         offset="0"
         id="stop20960" /><stop
         style="stop-color:#685983;stop-opacity:1;"
         offset="0.53424656"
         id="stop10843" /><stop
         style="stop-color:#c8c4d7;stop-opacity:1"
         offset="1"
         id="stop20962" /></linearGradient><linearGradient
       inkscape:collect="always"
       id="linearGradient16063"><stop
         style="stop-color:#c8c4d7;stop-opacity:1"
         offset="0"
         id="stop16059" /><stop
         style="stop-color:#685983;stop-opacity:1;"
         offset="0.46511719"
         id="stop16061" /><stop
         style="stop-color:#181721;stop-opacity:1"
         offset="1"
         id="stop7320" /></linearGradient><linearGradient
       inkscape:collect="always"
       id="linearGradient14798"><stop
         style="stop-color:#000000;stop-opacity:1;"
         offset="0"
         id="stop14794" /><stop
         style="stop-color:#000000;stop-opacity:0"
         offset="1"
         id="stop14796" /></linearGradient><linearGradient
       inkscape:collect="always"
       id="linearGradient8600"><stop
         style="stop-color:#181721;stop-opacity:1"
         offset="0"
         id="stop8596" /><stop
         style="stop-color:#685983;stop-opacity:1;"
         offset="0.49589041"
         id="stop10358" /><stop
         style="stop-color:#c8c4d7;stop-opacity:1"
         offset="1"
         id="stop8598" /></linearGradient><linearGradient
       inkscape:collect="always"
       xlink:href="#linearGradient8600"
       id="linearGradient8602"
       x1="156.07661"
       y1="123.6139"
       x2="161.95567"
       y2="122.59145"
       gradientUnits="userSpaceOnUse" /><linearGradient
       inkscape:collect="always"
       xlink:href="#linearGradient14798"
       id="linearGradient14800"
       x1="126.95521"
       y1="120.08691"
       x2="128.04829"
       y2="120.26885"
       gradientUnits="userSpaceOnUse" /><linearGradient
       inkscape:collect="always"
       xlink:href="#linearGradient16063"
       id="linearGradient16065"
       x1="126.37451"
       y1="173.71384"
       x2="119.62635"
       y2="175.55423"
       gradientUnits="userSpaceOnUse" /><linearGradient
       inkscape:collect="always"
       xlink:href="#linearGradient41889"
       id="linearGradient20158"
       x1="61.449093"
       y1="163.18262"
       x2="67.890511"
       y2="160.11528"
       gradientUnits="userSpaceOnUse" /><linearGradient
       inkscape:collect="always"
       xlink:href="#linearGradient20964"
       id="linearGradient20966"
       x1="99.075165"
       y1="123.00043"
       x2="105.05648"
       y2="121.46676"
       gradientUnits="userSpaceOnUse"
       gradientTransform="translate(1.122532,-2.245064)" /><linearGradient
       inkscape:collect="always"
       xlink:href="#linearGradient22408"
       id="linearGradient22410"
       x1="86.060791"
       y1="166.78955"
       x2="88.52504"
       y2="166.91048"
       gradientUnits="userSpaceOnUse"
       gradientTransform="translate(1.122532,-2.245064)" /><linearGradient
       inkscape:collect="always"
       xlink:href="#linearGradient22679"
       id="linearGradient22681"
       x1="39.101532"
       y1="156.85046"
       x2="40.107132"
       y2="156.63998"
       gradientUnits="userSpaceOnUse"
       gradientTransform="translate(1.122532,-2.245064)" /><linearGradient
       inkscape:collect="always"
       xlink:href="#linearGradient22879"
       id="linearGradient22881"
       x1="78.54818"
       y1="119.22787"
       x2="79.904167"
       y2="119.21133"
       gradientUnits="userSpaceOnUse"
       gradientTransform="translate(1.122532,-2.245064)" /></defs><g
     inkscape:label="Layer 1"
     inkscape:groupmode="layer"
     id="layer1"
     transform="translate(-22.419234,-56.368044)"><rect
       style="display:inline;fill:#feb60c;fill-opacity:1;stroke-width:0.515183"
       id="rect8274"
       width="175.9357"
       height="175.9357"
       x="-198.35493"
       y="-232.30374"
       rx="16.953892"
       ry="16.953892"
       inkscape:label="bacground"
       transform="scale(-1)" /><path
       id="path21914"
       style="fill:#544c70;fill-opacity:1;stroke-width:0.264583"
       d="m 115.10615,88.960461 -19.737811,0.327629 -2.899565,0.982369 -16.042948,9.541536 -1.215946,0.888315 -0.327629,2.71302 -0.374137,17.8201 -2.29185,-0.70177 -17.118852,0.047 -3.60133,-0.32763 -2.15129,0.56172 -23.713798,20.34553 -0.187069,1.30948 7.062618,32.69413 2.104781,0.98185 29.326375,6.40788 7.997962,-3.92896 11.365714,-13.14287 -0.327628,21.00079 1.683618,2.19831 45.509365,17.72657 3.32125,-0.2806 4.3496,-2.05776 4.49017,-7.24969 21.14083,-31.89882 -10.85102,-19.64428 20.43958,2.38538 6.82852,-3.41426 2.33888,-3.27422 12.95579,-17.0248 -11.92692,-31.150554 -3.74189,-1.215946 -28.53107,-1.49655 -4.3031,1.823662 -12.9558,10.757998 -1.40301,2.29185 -0.7953,6.45439 -1.49655,-1.91771 -11.83339,-19.784327 z m 9.20926,28.829769 c 0.0285,0 0.0572,5.4e-4 0.0858,0.002 1.20516,0.0425 2.23825,0.57027 3.07268,1.34462 0.30706,-0.17813 0.62417,-0.33912 0.96222,-0.43925 0.61808,-0.18309 1.27505,-0.19111 1.91254,-0.28681 0.78601,0.31459 1.61596,0.53601 2.358,0.94362 0.29186,0.16031 0.47691,0.4674 0.68471,0.7276 0.69821,0.87427 1.15886,1.99191 1.19476,3.11816 0.0144,0.45 -0.085,0.89639 -0.12764,1.34462 -0.14421,0.38825 -0.24683,0.79457 -0.43253,1.16478 -0.36575,0.72915 -0.88215,1.34847 -1.48725,1.87224 0.0313,0.21005 0.0493,0.42419 0.0512,0.64285 0.004,0.46181 -0.11688,0.91596 -0.17518,1.37408 -0.20682,0.43621 -0.34914,0.90979 -0.62064,1.30897 -0.89442,1.31509 -2.23163,1.86237 -3.78271,1.87947 -0.73943,0.008 -1.30036,-0.24798 -1.97042,-0.48473 -0.85612,-0.44831 -1.09365,-0.50953 -1.82832,-1.14256 -0.95659,-0.82426 -1.71021,-1.8516 -2.05258,-3.06442 -0.99047,-0.78805 -1.87701,-1.81299 -2.29392,-2.99671 -0.17196,-0.48827 -0.22113,-1.01152 -0.33176,-1.51722 0.0104,-0.3373 -0.008,-0.6766 0.031,-1.01183 0.17329,-1.50024 0.85098,-3.07596 2.12029,-3.97547 0.4078,-0.28897 0.9016,-0.4321 1.35237,-0.64802 0.42602,-0.0481 0.84956,-0.15557 1.27744,-0.15554 z m -33.0693,14.07976 v 5.1e-4 c 0.636307,-0.005 1.344367,0.10393 2.1146,0.35554 0.671212,0.21926 0.326108,0.093 1.031978,0.38499 0.220451,0.12146 0.451689,0.22524 0.661458,0.36432 0.890848,0.59068 1.548239,1.42316 2.016415,2.37453 0.746381,1.74991 0.601051,3.1053 -0.442351,4.68653 -0.166643,0.20203 -0.319419,0.41621 -0.499711,0.60617 -1.002601,1.05636 -2.352772,1.58732 -3.795634,1.60352 -1.176023,-0.0834 -2.39713,-0.30529 -3.403926,-0.96945 -0.308465,-0.20349 -0.575585,-0.46342 -0.863513,-0.69505 -0.192467,-0.24291 -0.409162,-0.46825 -0.577226,-0.72864 -0.116268,-0.18013 -0.216153,-0.36617 -0.303341,-0.55655 -0.754185,-0.12447 -0.747298,-0.57066 -0.377755,-1.17616 -0.06986,-0.33435 -0.116061,-0.67546 -0.147277,-1.01854 -0.0127,-0.24274 0.111891,0.2304 0.132291,0.2713 0.07158,0.1435 0.137382,0.29476 0.236678,0.42013 0.272498,-0.3698 0.638619,-0.78145 1.027328,-1.20561 -0.85545,-1.28892 -0.559271,-2.88677 0.605131,-3.853 -0.0777,5.4e-4 -0.157684,0.002 -0.241846,0.005 -0.116708,0.004 -0.233658,0.009 -0.350366,0.0129 -9e-4,-0.004 -0.0056,-0.009 -0.0026,-0.0103 0.266859,-0.12299 0.552603,-0.1775 0.843876,-0.19689 0.60135,-0.41104 1.389346,-0.66847 2.335775,-0.67541 z m 1.984375,5.01364 c 0.0022,0.0159 0.0043,0.0316 0.0067,0.0476 0.0069,0.0461 0.03401,0.18366 0.02791,0.13746 -0.0086,-0.0651 -0.02084,-0.12611 -0.03462,-0.18501 z m -3.070614,2.06758 c 0.04033,-0.01 -0.08048,0.0206 -0.120406,0.032 -0.0216,0.006 -0.04307,0.0127 -0.0646,0.0191 0.06277,-0.009 0.123005,-0.036 0.185001,-0.0512 z" /><g
       id="g8438"
       inkscape:label="b1"
       style="display:inline"
       transform="matrix(1.1696771,0,0,1.170315,-18.722137,-25.197168)"><path
         style="display:inline;fill:#c8c4d7;fill-opacity:1;stroke-width:0.264583"
         d="m 117.0489,97.699178 c 0,0 0.16296,0.01918 0.28437,0.236438 0.12142,0.21727 -0.14698,0.57194 -0.15337,0.58471 -0.006,0.0128 -0.40578,0.35786 -0.42175,0.38662 -0.016,0.0288 -13.05858,8.556614 -13.05858,8.556614 l 5.62346,20.85792 2.35163,-0.20449 8.69081,1.35475 0.23005,0.25561 -0.51123,0.84352 -6.41585,-1.61036 c 0,0 -1.73817,-0.20449 -1.91709,-0.20449 -0.17893,0 -2.0449,0.0256 -2.19826,0.12781 -0.15337,0.10224 -0.61347,0.28117 -0.61347,0.28117 l -1.22694,-4.60101 -4.37096,-16.74258 -0.10225,-0.61347 z"
         id="path20582"
         inkscape:label="right" /><path
         style="display:inline;fill:#5e587e;fill-opacity:1;stroke-width:0.264583"
         d="m 104.00252,106.65373 0.48801,0.97603 -3.3257,1.86167 -4.572848,0.72298 -1.825525,-1.31944 0.759129,-1.98819 z"
         id="path21744"
         inkscape:label="top" /><path
         style="display:inline;fill:#63557d;fill-opacity:1;stroke-width:0.264583"
         d="m 98.580174,137.68763 h 0.650682 l 7.555134,-7.41054 2.89192,-1.30136 1.87975,-0.46994 1.08447,0.28919 c 0,0 1.01217,-0.93987 0.68682,-0.97602 -0.32533,-0.0361 -4.91626,0.28919 -4.91626,0.28919 0,0 -1.30136,0.46994 -2.42198,1.44596 -1.12061,0.97602 -3.5426,2.60273 -3.5426,2.60273 z"
         id="path21319"
         inkscape:label="corner" /><path
         style="display:inline;fill:#c8c4d7;fill-opacity:1;stroke-width:0.264583"
         d="m 127.70153,115.69426 0.97132,1.22693 -1.68704,7.92397 -1.99377,0.30674 z"
         id="path21106"
         inkscape:label="right" /><path
         style="fill:#000000;fill-opacity:0;stroke-width:0.264583"
         d="m 79.457367,123.84257 -0.0723,0.72298 11.676118,12.3991 1.590556,-0.0723 z"
         id="path20818"
         inkscape:label="bottom" /><path
         style="display:inline;fill:#242231;fill-opacity:1;stroke-width:0.264583"
         d="m 79.70363,107.94606 c 0,0 -0.03615,-0.19204 0.0723,-0.28693 0.108447,-0.0949 0.02035,0.10167 0.02035,0.10167 l 0.08134,0.27337 0.370525,0.16493 16.95891,0.69588 0.383418,0.0256 5.942127,24.75455 -4.77166,4.44633 -1.626703,-0.79528 4.988553,-3.79564 V 131.3616 L 96.989632,109.16609 79.855014,108.5154 Z"
         id="path20724"
         inkscape:label="bottom" /><path
         style="display:inline;fill:#5e587e;fill-opacity:1;stroke-width:0.264583"
         d="m 103.23947,107.46356 12.85728,-8.179594 c 0,0 3.29739,-1.968207 -1.12469,-1.865961 -4.42209,0.102243 -16.998192,0.178927 -16.998192,0.178927 0,0 -1.508109,-0.07668 -3.910861,1.278064 -2.40275,1.354744 -13.547429,7.923964 -13.547429,7.923964 0,0 -2.070454,1.48255 0.562346,1.61036 2.632802,0.1278 14.672122,0.56234 14.672122,0.56234 0,0 4.166473,0.43455 7.489424,-1.5081 z"
         id="path6801"
         inkscape:label="top" /><path
         style="fill:#181721;fill-opacity:1;stroke-width:0.264583"
         d="m 79.697622,107.74473 c 0,0 -0.05112,0.63903 1.226936,0.66459 1.278059,0.0256 16.333599,0.58791 16.333599,0.58791 l 5.700143,24.43649 -4.601013,4.49877 -6.748153,-0.97133 -12.167124,-12.67834 z"
         id="path7767"
         inkscape:label="bottom" /><path
         style="fill:#c8c4d7;fill-opacity:1;stroke-width:0.264583"
         d="m 103.46952,107.36131 5.62346,21.31803 c 0,0 1.73817,-0.61347 4.90775,0 3.16959,0.61347 6.49254,1.22694 6.49254,1.22694 l 6.03244,-4.90775 1.48255,-8.84417 -10.78682,-18.455182 c 0,0 0.262,0.511218 -0.34507,0.996888 -0.60708,0.48566 -13.40685,8.665244 -13.40685,8.665244 z"
         id="path7769"
         inkscape:label="right" /><path
         style="fill:url(#linearGradient20966);fill-opacity:1;stroke-width:0.264583"
         d="m 97.245375,108.99723 c 0,0 3.923645,0 6.211365,-1.67426 2.28773,-1.67426 0,0 0,0 l 5.64278,21.39972 c 0,0 -1.87974,0.43378 -3.79564,2.38583 -1.91589,1.95204 -2.34968,2.38583 -2.34968,2.38583 z"
         id="path7840"
         inkscape:label="corner" /><path
         style="display:inline;fill:url(#linearGradient22881);fill-opacity:1;stroke-width:0.264583"
         d="m 79.767006,107.67245 c 0,0 -0.146161,0.36541 0.268941,0.52912 0.415102,0.1637 0.803897,0.18124 0.803897,0.18124 l 0.451437,18.22421 -1.852083,-1.9513 -0.06976,-0.0284 0.03508,-0.26601 0.283758,-16.56351 c 0,0 0.0076,-0.0947 0.07873,-0.12539 z"
         id="path22871"
         inkscape:label="bottom" /></g><g
       id="g8426"
       style="display:inline"
       inkscape:label="b2"
       transform="matrix(1.1696771,0,0,1.170315,-17.409137,-27.8246)"><path
         style="display:inline;fill:#c8c4d7;fill-opacity:1;stroke-width:0.264583"
         d="m 160.88211,113.49167 6.79928,34.91658 -0.15337,0.4601 -0.35786,0.20449 -7.10601,-35.27444 z"
         id="path12423"
         inkscape:label="right" /><path
         style="display:inline;fill:#5e587e;fill-opacity:1;stroke-width:0.264583"
         d="m 170.67205,102.3406 0.50483,0.15976 0.25561,0.15976 0.35786,0.41537 c 0,0 0.0192,0.58151 0.0256,0.64542 0.006,0.0639 -1.10553,1.2461 -1.10553,1.2461 l -7.09322,7.34885 -0.94577,-0.74128 z"
         id="path12564"
         inkscape:label="top" /><path
         style="display:inline;fill:#181721;fill-opacity:1;stroke-width:0.264583"
         d="m 128.61806,111.55574 25.55733,3.43416 0.10393,0.61453 -0.0723,0.10845 0.0181,0.1943 -1.455,-0.11749 -24.00743,-1.83004 -0.56032,-1.06639 0.0362,-0.90373 z"
         id="path8460"
         inkscape:label="bottom" /><path
         style="display:inline;fill:#5e587e;fill-opacity:1;stroke-width:0.264583"
         d="m 154.26576,115.62251 6.50682,-1.62671 -0.0361,2.38583 -5.63924,-0.10844 z"
         id="path8464"
         inkscape:label="top" /><path
         style="display:inline;fill:#000000;fill-opacity:0;stroke-width:0.264583"
         d="m 154.08284,115.74105 0.9202,-0.16614 -0.0256,2.72226 5.52398,31.90183 -0.93987,0.10845 -2.71118,-1.37366 0.79528,-1.04832"
         id="path12210"
         inkscape:label="bottom" /><path
         style="fill:#5e587e;fill-opacity:1;stroke-width:0.264583"
         d="m 141.88473,114.773 11.49538,0.90373 c 0,0 5.2416,0.83142 8.49501,-2.31354 3.25341,-3.14496 9.00109,-8.89264 9.00109,-8.89264 0,0 2.96422,-2.24124 -3.00036,-2.63888 -5.96458,-0.39764 -23.38839,-1.33751 -23.38839,-1.33751 0,0 -2.20509,-0.1446 -4.37402,1.5544 -2.16894,1.699 -11.27848,9.10955 -11.27848,9.10955 0,0 -2.09665,2.42198 1.98819,2.67502 4.08483,0.25304 11.06158,0.93987 11.06158,0.93987 z"
         id="path1846"
         inkscape:label="top" /><path
         style="fill:#c8c4d7;fill-opacity:1;stroke-width:0.264583"
         d="m 160.77987,114.25851 10.68457,-10.32672 c 0,0 0.74929,-1.07891 -0.63341,-1.54885 -1.3827,-0.46994 0.30726,0.10845 0.30726,0.10845 0,0 0.73202,0.1717 1.15677,1.35559 0.42475,1.18387 9.52166,25.00696 9.52166,25.00696 0,0 0.42176,0.84352 -0.0511,1.5209 -0.47288,0.67737 -14.25124,18.55895 -14.25124,18.55895 z"
         id="path7002"
         inkscape:label="right" /><g
         id="g8418"
         inkscape:label="bottom"
         style="display:inline;fill:#463e63;fill-opacity:1"><path
           style="display:inline;fill:#181721;fill-opacity:1;stroke-width:0.264583"
           d="m 124.45742,132.89261 -0.25561,1.38031 14.41651,3.34851 1.53367,2.505 5.16336,8.00065 2.58168,0.35785 -5.49566,-10.73569 -11.27248,-6.82484 z"
           id="path8413"
           inkscape:label="bottom" /><path
           style="display:inline;fill:#181721;fill-opacity:1;stroke-width:0.264583"
           d="m 128.44496,111.72795 c 0,0 -0.74127,1.91709 1.61036,2.07045 2.35163,0.15337 12.14156,1.02245 12.14156,1.02245 l 12.06488,0.94577 5.37212,34.61313 -13.73661,-2.16894 -5.85613,-9.25414 c 0,0 -0.57839,-2.67502 -3.6149,-3.398 -3.03651,-0.72298 -12.00146,-2.38584 -12.00146,-2.38584 l 3.47701,-20.56941 c 0,0 0.0958,-0.47288 0.54317,-0.87547 z"
           id="path7004"
           inkscape:label="bottom" /></g><path
         style="display:inline;fill:url(#linearGradient8602);fill-opacity:1;stroke-width:0.264583"
         d="m 154.21064,115.74105 c 0,0 4.60101,0.28118 6.56923,-1.48254 1.96821,-1.76373 -0.0511,0 -0.0511,0 l 6.74816,34.60984 c 0,0 -2.01934,2.53056 -7.84729,1.50811 -5.82795,-1.02244 -0.0256,0.0256 -0.0256,0.0256 v 0 0"
         id="path7558"
         inkscape:label="corner" /><path
         style="fill:url(#linearGradient14800);fill-opacity:1;stroke-width:0.264583"
         d="m 128.4194,111.70239 c 0,0 -0.69015,1.68703 1.38031,2.01933 2.07045,0.3323 -0.20449,-0.0767 -0.20449,-0.0767 l -3.32296,20.01441 -1.91708,-0.48567 3.52744,-20.47451 c 0,0 0,-0.43454 0.53678,-0.99688 z"
         id="path14792"
         inkscape:label="bottom" /></g><g
       id="g8444"
       inkscape:label="b3"
       style="display:inline"
       transform="matrix(1.1696771,0,0,1.170315,-17.409137,-27.8246)"><path
         id="path20141"
         style="display:inline;fill:#c8c4d7;fill-opacity:1;stroke-width:0.264583"
         d="m 78.013843,127.58343 -0.0041,0.0222 -0.722954,1.44642 -16.845483,15.7608 14.242541,29.23542 1.391647,2.62103 0.343648,0.0992 0.361218,-1.08469 -14.893147,-30.5816 16.98966,-16.26722 -0.05478,-0.82527 c -0.217925,-0.0843 -0.423572,-0.1956 -0.625285,-0.31264 -0.124066,-0.0751 -0.08699,-0.0523 -0.182934,-0.11369 z"
         inkscape:label="right" /><path
         style="display:inline;fill:#c8c4d7;fill-opacity:1;stroke-width:0.264583"
         d="m 80.846744,129.23242 -1.670182,-1.7694 c 0,0 -0.694532,-0.79375 -1.471745,-0.51263 -0.777214,0.28112 0.926041,1.86862 0.926041,1.86862 z"
         id="path22863"
         inkscape:label="right" /><path
         style="display:inline;fill:#5e587e;fill-opacity:1;stroke-width:0.264583"
         d="m 78.653245,127.06828 c 0,0 -0.748356,-0.4911 -1.654567,-0.52618 -0.906208,-0.0351 1.654567,0.52618 1.654567,0.52618 z"
         id="path22868"
         inkscape:label="top" /><path
         style="fill:#c8c4d7;fill-opacity:1;stroke-width:0.264583"
         d="m 93.758434,142.93816 1.431428,0.66459 -7.463867,7.82172 -0.766837,4.85663 c 0,0 0.511223,5.77682 0.511223,6.44142 0,0.66459 -0.613468,2.70948 -0.613468,2.70948 l -1.635916,0.61347 0.05112,-14.10977 1.022447,-3.11847 c 0,0 3.936424,-3.8853 4.447646,-4.29428 0.511225,-0.40898 3.016221,-1.58479 3.016221,-1.58479 z"
         id="path20577"
         inkscape:label="right" /><path
         style="fill:#5e587e;fill-opacity:1;stroke-width:0.264583"
         d="m 53.039462,147.82034 7.693919,-2.83729 0.4601,0.84352 -2.044893,0.76684 c 0,0 -4.06423,1.81484 -4.345403,1.81484 -0.281173,0 -1.763723,-0.58791 -1.763723,-0.58791 z"
         id="path20574"
         inkscape:label="top" /><path
         style="display:inline;fill:#000000;fill-opacity:0;stroke-width:0.264583"
         d="m 36.510468,144.97547 v 0.32534 l 0.253042,0.46994 0.361489,0.37956 6.434519,0.95795 8.994283,1.35111 14.41651,30.05996 0.917469,1.08686 1.156767,0.2169 -2.385833,-7.41054 -12.980223,-25.07787 -9.866616,-1.53367 z"
         id="path20148"
         inkscape:label="bottom" /><path
         id="path420"
         style="display:inline;fill:#181721;fill-opacity:1;stroke-width:0.264583"
         inkscape:label="bottom"
         d="m 36.488657,145.18754 c 0,0 0.0022,0.0211 0.01193,0.0552 z m 0.01193,0.0552 6.143683,28.31857 c 0.0082,0.003 0.01615,0.007 0.0243,0.009 0.0081,0.008 0.01729,0.0143 0.0243,0.023 0.01632,0.0201 0.0278,0.0479 0.03667,0.0715 0.0058,0.0154 0.01033,0.0312 0.01546,0.0468 0.0021,0.006 0.0014,0.004 0.0031,0.009 0.0067,8.6e-4 0.01323,0.002 0.01944,0.005 0.0067,0.003 0.01739,0.012 0.02739,0.0221 l 4.41e-4,-4.4e-4 c 4.17e-4,-6e-4 9.41e-4,-5.1e-4 0.0013,-8.8e-4 2.98e-4,3.4e-4 1.65e-4,5.7e-4 4.42e-4,8.8e-4 l 4.41e-4,4.4e-4 c 0.0059,0.003 0.01159,0.005 0.01679,0.008 0.0057,0.001 0.01565,0.004 0.03358,0.0128 4.63e-4,1.6e-4 8.74e-4,3e-4 0.0013,4.4e-4 0.02388,0.008 0.03117,0.007 0.02739,0.0155 l -4.42e-4,4.4e-4 c -2.79e-4,7.3e-4 -2.1e-4,0.001 -8.84e-4,0.002 l -4.41e-4,4.4e-4 c -1.73e-4,2.4e-4 -3.19e-4,6.6e-4 -4.42e-4,8.8e-4 -3.04e-4,4.8e-4 -9.81e-4,0.001 -0.0013,0.002 -0.0053,0.0111 -0.01039,0.0222 -0.0159,0.0331 0.0053,0.007 0.01058,0.0138 0.0159,0.0207 0.01071,0.004 0.02148,0.007 0.02253,0.008 0.03791,0.0128 0.076,0.026 0.113101,0.0411 0.02319,0.009 0.06271,0.0252 0.08571,0.0349 0.01271,0.005 0.02546,0.0104 0.038,0.0163 0.0292,0.0133 0.06876,0.0269 0.06141,0.0746 -4.83e-4,0.003 -0.0014,0.006 -0.0031,0.008 0.0094,0.007 0.01858,0.0133 0.02695,0.0216 0.0049,0.005 0.01139,0.009 0.01546,0.0146 l 25.233013,5.67007 c 0,0 -15.081662,-31.8612 -15.222248,-31.8612 -0.140586,0 -0.754154,-0.0508 -0.754154,-0.0508 l -6.377395,-0.69016 c 0,0 -4.984319,-0.48582 -7.272042,-0.76699 -1.950451,-0.23972 -2.283688,-0.92372 -2.339777,-1.12068 z" /><path
         style="fill:#5e587e;fill-opacity:1;stroke-width:0.264583"
         d="m 44.118609,146.9257 8.665241,0.92021 c 0,0 4.728822,0.38341 9.278713,-3.93643 4.549891,-4.31984 15.541201,-14.59544 15.541201,-14.59544 0,0 3.144026,-2.86285 -2.096018,-2.91397 -5.240044,-0.0511 -16.410281,-0.0511 -16.410281,-0.0511 0,0 -1.584793,-0.23005 -3.425201,1.27806 -1.840404,1.50811 -17.841708,15.15778 -17.841708,15.15778 0,0 -3.808616,3.01622 1.201377,3.60413 5.009992,0.58791 5.086676,0.53678 5.086676,0.53678 z"
         id="path1844"
         inkscape:label="top" /><path
         id="path3570"
         style="fill:#c8c4d7;fill-opacity:1;stroke-width:0.264583"
         inkscape:label="right"
         d="m 78.570915,127.57361 c 1.17e-4,6.8e-4 4.01e-4,0.001 5.16e-4,0.002 0.004,0.001 0.0079,0.003 0.01189,0.004 -0.0041,-0.002 -0.0083,-0.004 -0.0124,-0.006 z m -0.07545,0.58136 c -0.138637,0.3581 -0.449669,0.78268 -0.993738,1.28674 -3.476305,3.22071 -16.512687,15.49001 -16.512687,15.49001 l 15.438851,31.84922 9.50898,-10.9399 0.56224,-13.64981 c 0,0 1.59e-4,-0.56207 0.920357,-1.73788 0.920201,-1.17582 6.901388,-7.31067 6.901388,-7.31067 L 80.173401,128.48053 c -0.13545,-0.0144 -0.270682,-0.0324 -0.40566,-0.0517 -0.418841,-0.0724 -0.834372,-0.16251 -1.246436,-0.26665 -0.0086,-0.002 -0.01721,-0.005 -0.02584,-0.007 z" /><path
         style="fill:#c8c4d7;fill-opacity:1;stroke-width:0.264583"
         d="m 80.202573,128.51238 c -0.04093,-0.0292 -0.485261,-0.45604 -0.485261,-0.45604 l 0.280633,0.64312 z"
         id="path22866"
         inkscape:label="right" /><path
         style="display:inline;fill:url(#linearGradient20158);fill-opacity:1;stroke-width:0.264583"
         d="m 53.243953,147.83313 c 0,0 4.52433,-0.0128 7.898405,-3.10569 3.374078,-3.0929 -0.23005,0.20449 -0.23005,0.20449 l 15.362274,31.64475 0.05398,0.13759 c 0,0 -3.271483,4.10291 -7.880477,3.01845 -4.608994,-1.08447 0.01807,0 0.01807,0 v 0"
         id="path6590"
         inkscape:label="corner" /><path
         style="display:inline;fill:url(#linearGradient22681);fill-opacity:1;stroke-width:0.264583"
         d="m 37.616516,142.97082 c 0,0 0.280633,0.77175 1.69549,1.04069 1.414859,0.26893 -0.01169,0 -0.01169,0 l 6.090319,28.02116 c 0,0 -1.53789,-0.0827 -1.670182,-0.79375 -0.132292,-0.71107 -6.103932,-28.2681 -6.103932,-28.2681 z"
         id="path22673"
         transform="translate(-1.122532,2.245064)"
         inkscape:label="bottom" /></g><g
       id="g8432"
       inkscape:label="b4"
       style="display:inline"
       transform="matrix(1.1696771,0,0,1.170315,-17.409137,-27.8246)"><path
         style="display:inline;fill:#181721;fill-opacity:1;stroke-width:0.264583"
         d="m 115.94555,162.56915 8.43519,27.91282 2.14714,10.0711 h -0.97133 l -0.97132,-0.56234 -10.2756,-37.37046 z"
         id="path18760"
         inkscape:label="bottom" /><path
         style="display:inline;fill:#000000;fill-opacity:0;stroke-width:0.264583"
         d="m 115.89442,162.67139 c 0,0 -0.4601,0.97133 -0.10224,1.07357 0.35785,0.10225 1.89152,0.0511 1.89152,0.0511 l 0.71572,-1.22694 z"
         id="path20130"
         inkscape:label="bottom" /><path
         style="display:inline;fill:#5e587e;fill-opacity:1;stroke-width:0.264583"
         d="m 119.21737,162.51803 0.35786,0.81795 4.95887,-1.68703 -1.27806,-2.14714 z"
         id="path19920"
         inkscape:label="top" /><path
         style="display:inline;fill:#c8c4d7;fill-opacity:1;stroke-width:0.264583"
         d="m 139.1551,138.2349 1.02245,2.45387 -16.15467,20.03997 9.61101,34.96771 -0.17254,1.80206 -0.0575,0.15337 -1.46338,-0.11503 -9.45125,-36.14352 1.32918,-2.24938 z"
         id="path18697"
         inkscape:label="right" /><path
         style="display:inline;fill:#000000;fill-opacity:0;stroke-width:0.264583"
         d="m 86.974441,151.60881 -0.43379,1.10254 0.234969,1.77131 c 0,0 2.042416,1.60862 2.114716,1.699 0.0723,0.0904 6.976753,1.71707 6.976753,1.71707 l 19.484301,5.5308 0.0723,-0.68683 -25.66577,-7.66359 z"
         id="path16056"
         inkscape:label="bottom" /><path
         style="fill:#5e587e;fill-opacity:1;stroke-width:0.264583"
         d="m 97.638387,158.18793 14.694563,4.42824 c 0,0 7.28401,2.25932 11.2604,-2.69309 3.97639,-4.95241 14.80301,-18.30946 14.80301,-18.30946 0,0 4.48247,-4.68129 -3.75949,-6.308 -8.24197,-1.6267 -22.71964,-4.60899 -22.71964,-4.60899 0,0 -4.01253,-0.97602 -7.80817,2.74732 -3.79565,3.72334 -15.037979,15.14642 -15.037979,15.14642 0,0 -5.982658,5.3139 1.301361,7.48284 7.284019,2.16894 7.265945,2.11472 7.265945,2.11472 z"
         id="path1842"
         inkscape:label="top" /><path
         style="fill:#181721;fill-opacity:1;stroke-width:0.264583"
         d="m 86.612949,151.8257 c 0,0 -0.144595,1.66286 -0.28919,4.41018 -0.144598,2.74732 -1.012172,26.24416 -1.012172,26.24416 0,0 -0.433789,2.53043 3.759494,3.97639 4.193281,1.44595 34.486129,13.44741 34.486129,13.44741 l 2.24123,0.72298 -10.4109,-37.37804 -26.605651,-7.59128 c 0,0 -2.53043,-0.93988 -2.16894,-3.8318 z"
         id="path4220"
         inkscape:label="bottom" /><path
         style="display:inline;fill:url(#linearGradient16065);fill-opacity:1;stroke-width:0.264583"
         d="m 115.35139,163.32108 c 0,0 6.07303,-0.36149 7.62743,-2.71117 1.55441,-2.34969 0.0362,0.0723 0.0362,0.0723 l 10.41091,36.94425 c 0,0 -2.67503,3.72334 -7.66359,3.00036 -4.98856,-0.72298 0,0 0,0 v 0 0 0"
         id="path4774"
         inkscape:label="corner" /><path
         style="fill:#c8c4d7;fill-opacity:1;stroke-width:0.264583"
         d="m 123.01497,160.60991 15.9417,-19.6289 c 0,0 1.12062,-1.95204 0.43379,-2.89192 -0.68683,-0.93987 0.0723,0.1446 0.0723,0.1446 l 7.73589,12.10991 7.48283,12.07376 c 0,0 1.40981,1.66285 -0.43378,4.37402 -1.8436,2.71117 -13.51972,19.91809 -13.51972,19.91809 l -7.30209,10.88084"
         id="path5267"
         inkscape:label="right" /><path
         style="fill:#5e587e;fill-opacity:1;stroke-width:0.264583"
         d="m 124.21459,158.65829 -0.35786,0.83074 -0.42176,0.5879 -0.72849,0.77962 z"
         id="path20133"
         inkscape:label="top-1" /><path
         id="path22233"
         style="display:inline;fill:url(#linearGradient22410);fill-opacity:1;stroke-width:0.264583"
         d="m 88.038157,149.49348 c 0,0 -0.396875,0.0992 -0.56224,3.40651 -0.165362,3.30729 -1.058333,27.31823 -1.058333,27.31823 0,0 -0.263015,1.67855 2.028817,3.22203 0.118606,0.0799 0.185774,0.12383 0.279053,0.18603 0.03119,-0.0297 0.06369,-0.0596 0.09715,-0.0889 l 1.400948,-30.21831 c 0,0 -3.248215,-1.4306 -2.185396,-3.82561 z"
         transform="translate(-1.122532,2.245064)"
         inkscape:label="bottom" /></g></g></svg>
